# xmcd
#
# Track frame offsets: 
#        182
#        12645
#        26320
#        38457
#        49935
#        62125
#        75550
#        88522
#        102740
#        114262
#        126822
#        138957
#        151162
#        164467
#        177472
#        189870
#        202505
#        214310
#
# Disc length: 2999 seconds
#
# Revision: 4
# Processed by: cddbd v1.5.2PL0 Copyright (c) Steve Scherf et al.
# Submitted via: ExactAudioCopyFreeDBPlugin 1.0
#
DISCID=e50bb512
DTITLE=Little Walter - Boss Blues Harmonica - The Blues Collection 20
DYEAR=1995
DGENRE=Blues
TTITLE0=Tell me Mama
TTITLE1=You're so fine
TTITLE2=Last night
TTITLE3=My babe
TTITLE4=Juke
TTITLE5=Can't hold out much longer
TTITLE6=Mean old world
TTITLE7=Sad hours
TTITLE8=Too late
TTITLE9=Thunderbird
TTITLE10=I got to go
TTITLE11=Boom, boom out goes the light
TTITLE12=Teenage beat
TTITLE13=Just a feeling
TTITLE14=Shake dancer
TTITLE15=Ah'w baby
TTITLE16=It's too late brother
TTITLE17=Just your fool
EXTD=
EXTT0=
EXTT1=
EXTT2=
EXTT3=
EXTT4=
EXTT5=
EXTT6=
EXTT7=
EXTT8=
EXTT9=
EXTT10=
EXTT11=
EXTT12=
EXTT13=
EXTT14=
EXTT15=
EXTT16=
EXTT17=
PLAYORDER=
